<svg xmlns="http://www.w3.org/2000/svg" viewBox="0 0 512 512"><path d="M463.083 112.917c3.45 3.447 6.25 10.204 6.25 15.081v362.669c0 11.775-9.557 21.333-21.333 21.333H64c-11.776 0-21.333-9.558-21.333-21.333V21.333C42.667 9.558 52.224 0 64 0H341.335c4.877 0 11.634 2.8 15.081 6.251zM85.333 469.333h341.334v-320h-288c-5.889 0-10.667-4.778-10.667-10.666 0-5.889 4.778-10.667 10.667-10.667H320V42.667H85.333v426.666zM384 202.667c0 5.888-4.778 10.666-10.667 10.666H138.667c-5.889 0-10.667-4.778-10.667-10.666 0-5.889 4.778-10.667 10.667-10.667h234.666c5.889 0 10.667 4.778 10.667 10.667zm0 64c0 5.888-4.778 10.666-10.667 10.666H138.667c-5.889 0-10.667-4.778-10.667-10.666 0-5.889 4.778-10.667 10.667-10.667h234.666c5.889 0 10.667 4.778 10.667 10.667zm0 64c0 5.888-4.778 10.666-10.667 10.666H138.667c-5.889 0-10.667-4.778-10.667-10.666 0-5.889 4.778-10.667 10.667-10.667h234.666c5.889 0 10.667 4.778 10.667 10.667zm0 64c0 5.888-4.778 10.666-10.667 10.666H138.667c-5.889 0-10.667-4.778-10.667-10.666 0-5.889 4.778-10.667 10.667-10.667h234.666c5.889 0 10.667 4.778 10.667 10.667z" style="fill:white"/></svg>