<svg xmlns="http://www.w3.org/2000/svg" viewBox="0 0 512 512"><path d="M486.948 24.205c13.828 13.8 25.063 40.855 25.063 60.392s-11.224 46.59-25.052 60.39L385.649 246.17c-13.721 13.81-40.657 25.02-60.124 25.02-16.705 0-40.755-8.587-53.681-19.168l-21.76 21.721c9.948 12.748 18.022 36.216 18.022 52.386 0 19.412-11.118 46.331-24.817 60.086L144.266 487.23c-13.755 13.675-40.66 24.773-60.055 24.773L83.58 512c-19.369-.167-46.43-11.19-60.403-24.604C10.386 473.183.004 446.13.004 427.007s10.381-46.177 23.172-60.391L122.2 265.6c13.806-13.764 40.835-24.936 60.33-24.936 16.176 0 39.669 8.057 52.44 17.984l21.958-21.929c-9.534-12.532-17.271-35.484-17.271-51.231 0-19.47 11.221-46.394 25.05-60.099l101.31-101.184C380.03 10.844 407.118 0 426.481 0s46.451 10.844 60.466 24.205zM212.906 356.192c6.928-6.914 12.549-20.468 12.549-30.255 0-6.432-2.649-16.15-5.911-21.692l-63.077 62.997c-1.727 1.73-5.113 3.133-7.556 3.133-5.896 0-10.68-4.784-10.68-10.68 0-2.44 1.399-5.822 3.123-7.548l63.07-62.995c-5.552-3.32-15.308-6.014-21.777-6.014-9.728 0-23.197 5.593-30.062 12.487L53.56 396.64c-7.063 6.936-12.796 20.599-12.796 30.497 0 23.594 19.149 42.742 42.742 42.742 9.842 0 23.45-5.676 30.375-12.672zm243.815-241.395c6.992-6.923 12.667-20.524 12.667-30.364 0-23.591-19.146-42.737-42.737-42.737-9.857 0-23.479 5.692-30.406 12.705l-101.31 101.177c-6.914 6.825-12.525 20.249-12.525 29.964 0 6.019 2.371 15.175 5.293 20.438l63.137-63.046c1.707-1.623 5.004-2.94 7.36-2.94 5.895 0 10.68 4.786 10.68 10.681 0 2.349-1.31 5.638-2.924 7.344l-63.71 63.63c5.818 3.542 16.067 6.416 22.878 6.416 9.69 0 23.26-5.415 30.289-12.086z" style="fill:white"/></svg>