<svg xmlns="http://www.w3.org/2000/svg" viewBox="0 0 512 512"><path d="M463.083 112.917c3.45 3.447 6.25 10.204 6.25 15.081v362.669c0 11.775-9.557 21.333-21.333 21.333H64c-11.776 0-21.333-9.558-21.333-21.333V21.333C42.667 9.558 52.224 0 64 0H341.335c4.877 0 11.634 2.8 15.081 6.251zM85.333 469.333h341.334v-320h-85.334C329.558 149.333 320 139.776 320 128V42.667H85.333v426.666zM192 170.667V384l149.333-106.667zm0-21.334c3.772 0 9.33 1.781 12.4 3.975l149.332 106.667c4.931 3.522 8.933 11.298 8.933 17.358s-4.002 13.837-8.933 17.36L204.4 401.358c-3.07 2.193-8.626 3.973-12.399 3.973-11.775 0-21.333-9.557-21.333-21.332V170.667c0-11.776 9.557-21.334 21.333-21.334z" style="fill:white"/></svg>