<svg xmlns="http://www.w3.org/2000/svg" viewBox="0 0 512 512"><path d="M490.667 21.333c11.742.034 21.299 9.592 21.333 21.334v426.666c-.034 11.742-9.59 21.3-21.333 21.334H21.333C9.591 490.633.034 481.075 0 469.333V42.667c.034-11.742 9.59-21.3 21.333-21.334h469.334zM469.333 448V149.333H42.667V448h426.666zm0-320V64H42.667v64h426.666zm-320-32c0-5.888 4.78-10.667 10.667-10.667s10.667 4.78 10.667 10.667-4.78 10.667-10.667 10.667h-.105c-5.83 0-10.562-4.731-10.562-10.562V96zM64 96c0-5.888 4.778-10.667 10.667-10.667 5.888 0 10.666 4.78 10.666 10.667s-4.778 10.667-10.666 10.667h-.105c-5.83 0-10.563-4.731-10.563-10.562L64 96zm42.667 0c0-5.888 4.778-10.667 10.666-10.667C123.222 85.333 128 90.113 128 96s-4.778 10.667-10.667 10.667h-.104c-5.83 0-10.563-4.731-10.563-10.562l.001-.105zm313.792 291.147c.49 1.124.89 3.026.89 4.251 0 5.888-4.779 10.667-10.666 10.667-1.73 0-4.317-.76-5.772-1.696v16.058h-20.693v-16.52c-1.514 1.152-4.285 2.117-6.187 2.156-1.177-.003-3.015-.368-4.104-.813-3.628-1.516-6.573-5.937-6.573-9.87 0-1.172.364-3.004.812-4.088l15.689-37.648c.085-.207.262-.333.358-.53V294.43l-21.333 9.696v62.171c0 6.302-4.256 14.254-9.5 17.75-25.337 15.506-70.008 28.36-99.712 28.691-.277.002-.728.003-1.005.003-28.698 0-71.148-13.244-94.756-29.562-4.572-3.532-8.287-11.087-8.292-16.865l-.055-63.272-39.073-17.756c-6.903-3.137-12.507-11.838-12.507-19.422 0-7.583 5.604-16.284 12.507-19.422l138.098-62.763c2.322-1.055 6.277-1.912 8.827-1.912s6.506.857 8.829 1.912l138.095 62.755c6.903 3.119 12.505 11.797 12.505 19.371 0 7.33-5.346 15.89-11.934 19.104v66.347zm-78.912-20.854v-52.48l-75.309 34.245c-2.322 1.055-6.277 1.912-8.828 1.912s-6.506-.857-8.828-1.912l-77.68-35.31.046 53.545c20.373 13.863 56.909 25.114 81.551 25.114.322 0 .847-.002 1.17-.005 26.144-.314 65.514-11.563 87.878-25.109zm-84.137-37.661l98.934-44.983-100.99-19.894c-4.479-1.104-8.114-5.744-8.114-10.356 0-5.89 4.779-10.667 10.667-10.667.437 0 1.14.051 1.573.116l124.733 24.572v-.333l5.79 1.28 5.504-2.503-138.097-62.77-138.095 62.77 50.148 22.789z" style="fill:white"/></svg>